<svg version="1.1" xmlns="http://www.w3.org/2000/svg" xmlns:xlink="http://www.w3.org/1999/xlink" xmlns:i="http://ns.adobe.com/AdobeIllustrator/10.0/" xmlns:sketch="http://www.bohemiancoding.com/sketch/ns" height="100%" width="100%" x="0px" y="0px" viewBox="0 0 640 480" xml:space="preserve" preserveAspectRatio="xMidYMid meet" class=""><defs><linearGradient id="textGradient540962716"><stop offset="0.05" stop-color="#B68648" /><stop offset="0.95" stop-color="#FBF3A3" /></linearGradient></defs>{{text2Gradient}}<defs><linearGradient id="sloganGradient540962716"><stop offset="0.05" stop-color="#B68648" /><stop offset="0.95" stop-color="#FBF3A3" /></linearGradient></defs><defs><linearGradient id="iconGradient540962716"><stop offset="0" stop-color="#6d7cff" /><stop offset="1" stop-color="#ff51ff" /></linearGradient></defs><rect x="0px" y="0px" width="100%" height="100%" fill="#000000"/><g class="logo-container-box logoContainerBox" transform="scale(0.99) translate(3.2322850853505543,2.424227165453374)"><g class="containerBody" transform="scale(0.9733611120153651) translate(67.23508513957404,6.568282581792317)" ><g class="sampleIconBox" transform="scale(1) translate(0,0)"><g class="sampleIcons_1" transform="scale(2.42915327439047) translate(-34.74343012524889,42.105426330071)" fill="url(#iconGradient540962716)"><path d="M66.727,10.402c0.07-0.907,5.508-1.255,5.508-1.255s1.952,5.926,5.508,7.111c3.556,1.185,8.436-2.231,8.436-2.231  s3.555,3.068,3.834,5.09c-1.744,2.928-3.626,3.974-3.626,3.974s0.209,8.436,0.767,11.503c-1.115,5.16-7.877,4.811-7.877,4.811  l-5.299,5.229c21.403,18.615,8.645,39.25,26.632,56.541C53.48,115.256,49.368,76.562,16.391,71.613  c19.382-32.627,41.063-30.256,41.063-30.256c1.604-7.669,0.418-19.382,0.418-19.382S71.887,22.881,66.727,10.402z"></path></g></g><g class="sampleTexts_1" transform="scale(1) translate(0.000006103515630684342,-2.1199874877929688)"><g class="logo--name svgLogoName_1 logoNameBox" transform="scale(1) translate(195.99999990463257,232.50000381469727)" fill="url(#textGradient540962716)"><path d="M56.40-51.20L56.40-51.20Q56.60-51 57.30-50.95L57.30-50.95L57.30-50.95Q58-50.90 58.55-50.40L58.55-50.40L58.55-50.40Q59.10-49.90 60.25-47.10L60.25-47.10L60.25-47.10Q61.40-44.30 61.40-42.45L61.40-42.45L61.40-42.45Q61.40-40.60 60.95-38.55L60.95-38.55L60.95-38.55Q60.50-36.50 59.50-36.50L59.50-36.50L59.50-36.50Q57.80-36.50 56.70-40.45L56.70-40.45L56.70-40.45Q55.60-44.40 55.10-45.40L55.10-45.40L55.10-45.40Q52.30-51.30 49.10-54L49.10-54L49.10-54Q46.20-56.70 43.20-56.70L43.20-56.70L43.20-56.70Q41.90-56.70 40.60-56.20L40.60-56.20L40.60-56.20Q34.20-53.50 34.20-43.60L34.20-43.60L34.20-43.60Q34.20-40.40 35.40-36.05L35.40-36.05L35.40-36.05Q36.60-31.70 39.10-28.40L39.10-28.40L39.10-28.40Q39.60-27.80 44.40-27.40L44.40-27.40L44.40-27.40Q46.90-27.10 47.30-25.65L47.30-25.65L47.30-25.65Q47.70-24.20 46.10-23.40L46.10-23.40L46.10-23.40Q45.20-22.30 39.20-24L39.20-24L39.20-24Q37.60-24.40 37.10-24.50L37.10-24.50L37.10-24.50Q31.70-24.40 24.90-22.10L24.90-22.10L24.90-22.10Q18.10-19.80 12.40-15.05L12.40-15.05L12.40-15.05Q6.70-10.30 6.70-4.60L6.70-4.60L6.70-4.60Q6.70-0.30 10.20 2.35L10.20 2.35L10.20 2.35Q13.70 5 21.45 5L21.45 5L21.45 5Q29.20 5 38.75 2.60L38.75 2.60L38.75 2.60Q48.30 0.20 53.75-2.60L53.75-2.60L53.75-2.60Q59.20-5.40 64.50-10.50L64.50-10.50L64.50-10.50Q69.80-15.60 69.80-19.30L69.80-19.30L69.80-19.30Q69.80-19.90 69.75-20.30L69.75-20.30L69.75-20.30Q69.70-20.70 69.90-20.80L69.90-20.80L69.90-20.80Q70.50-21.10 70.90-20.70L70.90-20.70L70.90-20.70Q72.20-18.20 72.20-16.80L72.20-16.80L72.20-16.80Q72.20-12.70 69.50-9.40L69.50-9.40L69.50-9.40Q64.80-3.70 58.90-0.40L58.90-0.40L58.90-0.40Q53 2.90 42.75 5.20L42.75 5.20L42.75 5.20Q32.50 7.50 25.70 7.50L25.70 7.50L25.70 7.50Q18.90 7.50 14.15 6.30L14.15 6.30L14.15 6.30Q9.40 5.10 5.90 1.50L5.90 1.50L5.90 1.50Q2.40-2.10 2.40-7.35L2.40-7.35L2.40-7.35Q2.40-12.60 4.95-16.25L4.95-16.25L4.95-16.25Q7.50-19.90 11.05-21.90L11.05-21.90L11.05-21.90Q14.60-23.90 19.60-25.20L19.60-25.20L19.60-25.20Q27-27.20 36.10-27.70L36.10-27.70L36.10-27.70Q29.60-35.10 28.40-44.80L28.40-44.80L28.40-44.80Q28.30-45.90 28.30-46.90L28.30-46.90L28.30-46.90Q28.30-50.50 30.05-53.55L30.05-53.55L30.05-53.55Q31.80-56.60 35.90-57.90L35.90-57.90L35.90-57.90Q40-59.20 42-59.20L42-59.20L42-59.20Q44-59.20 44.95-58.95L44.95-58.95L44.95-58.95Q45.90-58.70 46.60-58.45L46.60-58.45L46.60-58.45Q47.30-58.20 48-57.75L48-57.75L48-57.75Q48.70-57.30 49.20-57L49.20-57L49.20-57Q49.70-56.70 50.40-56.05L50.40-56.05L50.40-56.05Q51.10-55.40 51.40-55.15L51.40-55.15L51.40-55.15Q51.70-54.90 52.50-54.15L52.50-54.15L52.50-54.15Q53.30-53.40 53.50-53.30L53.50-53.30L53.50-53.30Q55-51.50 56.40-51.20L56.40-51.20ZM117.90-51L117.90-51L117.90-51Q119.10-53.20 119.10-54.40L119.10-54.40L119.10-54.40Q119.10-56.50 117.40-56.50L117.40-56.50L117.40-56.50Q116-56.50 113.90-54.90L113.90-54.90L113.90-54.90Q105.90-48.70 98.40-35.30L98.40-35.30L98.40-35.30Q92.40-24.50 89.60-16.80L89.60-16.80L89.60-16.80Q96.50-21.50 105.05-32.10L105.05-32.10L105.05-32.10Q113.60-42.70 117.90-51ZM88.10-12.80L88.10-12.80L88.10-12.80Q86.90-9.40 86.80-8.25L86.80-8.25L86.80-8.25Q86.70-7.10 86.70-5.15L86.70-5.15L86.70-5.15Q86.70-3.20 87.70-1.60L87.70-1.60L87.70-1.60Q89.40 1.10 93.40-1.20L93.40-1.20L93.40-1.20Q96.40-2.80 101-7.05L101-7.05L101-7.05Q105.60-11.30 108.10-14.80L108.10-14.80L108.10-14.80Q108.30-15.10 108.70-15.10L108.70-15.10L108.70-15.10Q109.60-15.10 109.20-13.80L109.20-13.80L109.20-13.80Q107.70-11.10 103.65-6.90L103.65-6.90L103.65-6.90Q99.60-2.70 96.30-0.25L96.30-0.25L96.30-0.25Q93 2.20 89.70 2.20L89.70 2.20L89.70 2.20Q82.10 2.20 82.10-5.20L82.10-5.20L82.10-5.20Q82.10-5.50 82.10-5.80L82.10-5.80L82.10-5.80Q82.50-12.80 89.20-26.95L89.20-26.95L89.20-26.95Q95.90-41.10 101.30-48.30L101.30-48.30L104.40-52.20L104.40-52.20Q105.50-53.50 107.60-55.40L107.60-55.40L107.60-55.40Q111.60-59.20 115.85-59.20L115.85-59.20L115.85-59.20Q120.10-59.20 121.60-56.60L121.60-56.60L121.60-56.60Q122.10-55.70 122.10-54L122.10-54L122.10-54Q122.10-52.30 120.60-49.20L120.60-49.20L120.60-49.20Q110.30-31.30 88.10-12.80ZM134.90-11L134.90-11L134.90-11Q136.70-14.70 136.70-16.70L136.70-16.70L136.70-16.70Q136.70-18.70 136.25-19.85L136.25-19.85L136.25-19.85Q135.80-21 136.65-21.80L136.65-21.80L136.65-21.80Q137.50-22.60 138.80-22.40L138.80-22.40L138.80-22.40Q140.80-21.90 140.80-17.90L140.80-17.90L140.80-17.90Q140.80-13.90 136.10-7.40L136.10-7.40L136.10-7.40Q136.20-4.70 138.90-4.70L138.90-4.70L138.90-4.70Q141.60-4.70 147.10-10.50L147.10-10.50L147.10-10.50Q149.70-13.50 150.35-14.40L150.35-14.40L150.35-14.40Q151-15.30 151.50-15.05L151.50-15.05L151.50-15.05Q152-14.80 152-14.60L152-14.60L152-14.60Q152-13.60 148.40-9.40L148.40-9.40L148.40-9.40Q142.70-2.40 138.30-2.40L138.30-2.40L138.30-2.40Q135.40-2.40 134.20-4.90L134.20-4.90L134.20-4.90Q132.20-2.80 130.30-1L130.30-1L130.30-1Q126.40 2.30 121.60 2.30L121.60 2.30L121.60 2.30Q118.90 2.30 117.10 1L117.10 1L117.10 1Q113.60-1.10 113.60-6.50L113.60-6.50L113.60-6.50Q113.60-12.40 117.60-18.50L117.60-18.50L117.60-18.50Q119.90-22.10 123-24.80L123-24.80L123-24.80Q127.90-29.10 132.30-29.10L132.30-29.10L132.30-29.10Q133.40-29.10 134.40-28.80L134.40-28.80L134.40-28.80Q137.40-27.80 137.40-25L137.40-25L137.40-25Q137.40-22.70 136.20-22.70L136.20-22.70L136.20-22.70Q135.70-22.90 135.70-24.20L135.70-24.20L135.70-24.20Q135.70-26 133.70-26L133.70-26L133.70-26Q130.20-26 124.70-19.60L124.70-19.60L124.70-19.60Q119.20-13.20 118.10-6.70L118.10-6.70L118.10-6.70Q117.90-5.60 117.90-4.25L117.90-4.25L117.90-4.25Q117.90-2.90 118.80-1.15L118.80-1.15L118.80-1.15Q119.70 0.60 122.15 0.60L122.15 0.60L122.15 0.60Q124.60 0.60 127.50-1.60L127.50-1.60L127.50-1.60Q130.40-3.80 132.70-7.20L132.70-7.20L132.40-7.80L132.40-7.80Q132-9.40 132.80-10.40L132.80-10.40L132.80-10.40Q133.60-11.40 134.90-11ZM179.90-29.10L179.90-29.10L179.90-29.10Q185.30-29.10 185.30-23.90L185.30-23.90L185.30-23.90Q185.30-21.20 183.80-19.50L183.80-19.50L183.80-19.50Q181.30-15.80 175.70-13.05L175.70-13.05L175.70-13.05Q170.10-10.30 166.20-10L166.20-10L166.20-10Q164.80-9.90 164.70-10.80L164.70-10.80L164.70-10.80Q164.60-11.20 164.95-11.30L164.95-11.30L164.95-11.30Q165.30-11.40 165.50-11.40L165.50-11.40L165.50-11.40Q167.80-11.60 171.40-13.60L171.40-13.60L171.40-13.60Q178.10-17.20 181.20-21L181.20-21L181.20-21Q182.50-22.80 182.50-24.45L182.50-24.45L182.50-24.45Q182.50-26.10 180.90-26.10L180.90-26.10L180.90-26.10Q179.60-26.10 177.40-25L177.40-25L177.40-25Q172.70-22.80 167.50-17.35L167.50-17.35L167.50-17.35Q162.30-11.90 160.70-6.70L160.70-6.70L160.70-6.70Q160.20-5.10 160.20-3.55L160.20-3.55L160.20-3.55Q160.20-2 161.50-0.60L161.50-0.60L161.50-0.60Q162.80 0.80 165.50 0.80L165.50 0.80L165.50 0.80Q168.50 0.80 172.40-0.80L172.40-0.80L172.40-0.80Q183.70-5.40 189.80-14.70L189.80-14.70L189.80-14.70Q190.40-15.50 190.90-15L190.90-15L190.90-15Q191.30-14.80 191.30-14.50L191.30-14.50L191.30-14.50Q191.30-14.20 191-13.80L191-13.80L191-13.80Q188-8.80 183.40-4.90L183.40-4.90L183.40-4.90Q174.50 2.70 166.10 2.70L166.10 2.70L166.10 2.70Q158.90 2.70 156-1.60L156-1.60L156-1.60Q154.90-3.30 154.90-5.70L154.90-5.70L154.90-5.70Q154.90-8.10 156.20-11.40L156.20-11.40L156.20-11.40Q158.70-17.10 166.90-23.10L166.90-23.10L166.90-23.10Q175.10-29.10 179.90-29.10ZM224.00-28.40L224.00-28.40L224.00-28.40Q226.30-28.40 226.30-25.95L226.30-25.95L226.30-25.95Q226.30-23.50 224.00-19.20L224.00-19.20L224.00-19.20Q221.70-14.90 220.60-12.20L220.60-12.20L220.60-12.20Q218.70-7.60 218.70-4.85L218.70-4.85L218.70-4.85Q218.70-2.10 219.50-1.20L219.50-1.20L219.50-1.20Q221.00 0.40 223.60-1.05L223.60-1.05L223.60-1.05Q226.20-2.50 230.85-6.65L230.85-6.65L230.85-6.65Q235.50-10.80 238.30-14.80L238.30-14.80L238.30-14.80Q238.70-15.30 239.25-15.05L239.25-15.05L239.25-15.05Q239.80-14.80 239.80-14.55L239.80-14.55L239.80-14.55Q239.80-14.30 239.60-14L239.60-14L239.60-14Q238.10-11.30 234.20-7.10L234.20-7.10L234.20-7.10Q230.30-2.90 226.70-0.35L226.70-0.35L226.70-0.35Q223.10 2.20 219.60 2.20L219.60 2.20L219.60 2.20Q216.20 2.10 214.80 0.65L214.80 0.65L214.80 0.65Q213.40-0.80 213.40-3L213.40-3L213.40-3Q213.40-5.20 213.80-7.25L213.80-7.25L213.80-7.25Q214.20-9.30 215.30-12L215.30-12L215.30-12Q217.10-16.30 218.45-18.70L218.45-18.70L218.45-18.70Q219.80-21.10 219.80-21.85L219.80-21.85L219.80-21.85Q219.80-22.60 219.00-22.60L219.00-22.60L219.00-22.60Q217.40-22.60 212.90-18.70L212.90-18.70L212.90-18.70Q209.80-15.80 203.75-7.75L203.75-7.75L203.75-7.75Q197.70 0.30 196.90 0.80L196.90 0.80L196.90 0.80Q193.30 2.60 192.40 2.60L192.40 2.60L192.40 2.60Q191.50 2.60 191.50 2.30L191.50 2.30L191.50 2.30Q191.50 2 191.70 1.45L191.70 1.45L191.70 1.45Q191.90 0.90 193.65-4L193.65-4L193.65-4Q195.40-8.90 197.45-14.75L197.45-14.75L197.45-14.75Q199.50-20.60 199.95-21.80L199.95-21.80L199.95-21.80Q200.40-23 200.55-23.85L200.55-23.85L200.55-23.85Q200.70-24.70 200.90-25.30L200.90-25.30L200.90-25.30Q201.10-25.90 201.65-26.65L201.65-26.65L201.65-26.65Q202.20-27.40 203.10-27.45L203.10-27.45L203.10-27.45Q204.00-27.50 205.40-27.25L205.40-27.25L205.40-27.25Q206.80-27 206.80-26L206.80-26L206.80-26Q206.80-25.30 205.70-22.95L205.70-22.95L205.70-22.95Q204.60-20.60 199.40-6.80L199.40-6.80L199.40-6.80Q203.00-11.20 208.50-16.95L208.50-16.95L208.50-16.95Q214.00-22.70 217.80-25.70L217.80-25.70L217.80-25.70Q221.60-28.40 224.00-28.40Z"/></g><g id="" class="logo--name svgSloganText_1 sloganBox" transform="scale(1) translate(195.85000004768372,297.6799995422363)" fill="url(#sloganGradient540962716)"><path d="M8.42-19.50L8.42-19.50L8.42-19.50Q8.42-12.01 12.04-7.85L12.04-7.85L12.04-7.85Q15.65-3.69 21.01-3.69L21.01-3.69L21.01-3.69Q24.91-3.69 31.36-7.23L31.36-7.23L32.76-5.10L32.76-5.10Q30.37-3.33 29.04-2.55L29.04-2.55L29.04-2.55Q27.72-1.77 26.05-0.94L26.05-0.94L26.05-0.94Q22.67 0.68 18.82 0.68L18.82 0.68L18.82 0.68Q12.06 0.68 7.31-4.37L7.31-4.37L7.31-4.37Q2.55-9.41 2.55-17.89L2.55-17.89L2.55-17.89Q2.55-26.36 8.06-31.69L8.06-31.69L8.06-31.69Q13.57-37.02 21.74-37.02L21.74-37.02L21.74-37.02Q27.20-37.02 31.98-34.53L31.98-34.53L31.98-34.53Q31.36-31.25 29.80-29.02L29.80-29.02L29.80-29.02Q24.44-33.33 18.20-33.33L18.20-33.33L18.20-33.33Q16.33-33.33 14.56-32.97L14.56-32.97L14.56-32.97Q11.91-30.99 10.17-27.61L10.17-27.61L10.17-27.61Q8.42-24.23 8.42-19.50ZM48.31 0.62L48.31 0.62L48.31 0.62Q42.85 0.62 39.68-2.83L39.68-2.83L39.68-2.83Q36.50-6.29 36.50-11.88L36.50-11.88L36.50-11.88Q36.50-17.47 40.20-21.53L40.20-21.53L40.20-21.53Q43.89-25.58 49.48-25.58L49.48-25.58L49.48-25.58Q55.07-25.58 58.11-22.20L58.11-22.20L58.11-22.20Q61.15-18.82 61.15-13.16L61.15-13.16L61.15-13.16Q61.15-7.49 57.46-3.43L57.46-3.43L57.46-3.43Q53.77 0.62 48.31 0.62ZM55.64-11.86L55.64-11.86L55.64-11.86Q55.64-17.00 54.03-19.81L54.03-19.81L54.03-19.81Q52.42-22.62 48.31-22.62L48.31-22.62L48.31-22.62Q45.66-22.62 44.15-21.48L44.15-21.48L44.15-21.48Q43.21-20.28 42.61-17.84L42.61-17.84L42.61-17.84Q42.02-15.39 42.02-13.16L42.02-13.16L42.02-13.16Q42.02-2.29 49.71-2.29L49.71-2.29L49.71-2.29Q52.10-2.29 53.61-3.38L53.61-3.38L53.61-3.38Q54.60-4.58 55.12-7.07L55.12-7.07L55.12-7.07Q55.64-9.57 55.64-11.86ZM89.02-16.69L89.02-16.69L89.02-7.28L89.02-7.28Q89.02-3.12 89.80-0.36L89.80-0.36L89.80 0L83.36 0L83.36-0.36L83.36-0.36Q84.14-3.12 84.14-7.28L84.14-7.28L84.14-15.60L84.14-15.60Q84.14-18.56 83.36-19.94L83.36-19.94L83.36-19.94Q82.58-21.32 80.24-21.32L80.24-21.32L80.24-21.32Q77.90-21.32 73.94-18.67L73.94-18.67L73.94-8.84L73.94-8.84Q73.94-3.80 75.45-0.36L75.45-0.36L75.45 0L68.17 0L68.17-0.36L68.17-0.36Q69.06-2.96 69.06-7.28L69.06-7.28L69.06-16.12L69.06-16.12Q69.06-18.36 68.15-20.51L68.15-20.51L68.15-20.51Q67.24-22.67 66.04-23.40L66.04-23.40L65.99-24.02L72.80-25.64L73.11-25.12L73.11-25.12Q73.53-23.19 73.74-21.22L73.74-21.22L73.74-21.22Q75.61-22.83 76.41-23.48L76.41-23.48L76.41-23.48Q77.22-24.13 78.70-24.86L78.70-24.86L78.70-24.86Q80.18-25.58 81.48-25.58L81.48-25.58L81.48-25.58Q86.84-25.58 88.40-20.96L88.40-20.96L88.40-20.96Q93.76-25.58 96.77-25.58L96.77-25.58L96.77-25.58Q100.41-25.58 102.44-23.19L102.44-23.19L102.44-23.19Q104.47-20.80 104.47-16.33L104.47-16.33L104.47-8.84L104.47-8.84Q104.47-3.90 106.03-0.36L106.03-0.36L106.03 0L98.70 0L98.70-0.36L98.70-0.36Q99.58-2.96 99.58-7.28L99.58-7.28L99.58-15.24L99.58-15.24Q99.58-21.32 95.78-21.32L95.78-21.32L95.78-21.32Q92.61-21.32 88.92-18.62L88.92-18.62L88.92-18.62Q89.02-17.37 89.02-16.69ZM110.97-22.00L112.16-25.17L115.13-25.01L115.13-28.13L115.13-28.13Q115.13-32.55 117.18-35.52L117.18-35.52L117.18-35.52Q119.24-38.48 123.55-38.48L123.55-38.48L123.55-38.48Q127.87-38.48 132.24-36.50L132.24-36.50L132.24-36.50Q130.88-33.23 130-31.93L130-31.93L130-31.93Q126.31-35.26 123.24-35.26L123.24-35.26L123.24-35.26Q122.25-35.26 121.11-34.79L121.11-34.79L121.11-34.79Q120.02-33.38 120.02-27.98L120.02-27.98L120.02-24.96L120.02-24.96Q123.81-25.01 127.56-25.38L127.56-25.38L126.15-21.58L126.15-21.58Q123.08-22.05 120.02-22.15L120.02-22.15L120.02-10.04L120.02-10.04Q120.02-7.59 120.48-4.63L120.48-4.63L120.48-4.63Q120.95-1.66 121.52-0.36L121.52-0.36L121.52 0L114.24 0L114.24-0.36L114.24-0.36Q115.13-2.96 115.13-8.84L115.13-8.84L115.13-22.15L110.97-22.00ZM140.66-4.78L140.66-4.78L140.66-4.78Q145.65-20.02 145.65-22.88L145.65-22.88L145.65-22.88Q145.65-23.76 145.29-24.34L145.29-24.34L145.29-24.96L150.85-24.96L150.85-24.34L150.85-24.34Q150.07-23.66 142.38-0.52L142.38-0.52L142.38-0.52Q138.68 10.30 138.16 12.38L138.16 12.38L138.16 12.79L131.72 13.26L131.66 12.90L131.66 12.90Q135.46 8.37 138.32 0.73L138.32 0.73L138.32 0.73Q138.01-0.16 129.32-20.70L129.32-20.70L129.32-20.70Q128.28-23.14 127.09-24.13L127.09-24.13L127.09-24.75L134.06-25.32L134.06-24.70L134.06-24.70Q134.06-23.35 135.30-19.47L135.30-19.47L135.30-19.47Q136.55-15.60 140.66-4.78ZM186.89-23.92L185.48-20.90L182-20.90L182-20.90Q182.21-18.62 182.21-16.74L182.21-16.74L182.21-16.74Q182.21-11.65 180.54-8.01L180.54-8.01L180.54-8.01Q185.33-4.73 191.26-1.66L191.26-1.66L187.82 2.96L187.82 2.96Q183.87-0.26 182.16-1.46L182.16-1.46L178.36-4.42L178.36-4.42Q174.10 0.62 166.35 0.62L166.35 0.62L166.35 0.62Q159.64 0.62 156.29-2.70L156.29-2.70L156.29-2.70Q152.93-6.03 152.93-11.34L152.93-11.34L152.93-11.34Q152.93-13.88 153.71-15.91L153.71-15.91L153.71-15.91Q154.49-17.94 155.69-19.03L155.69-19.03L155.69-19.03Q157.82-20.96 159.85-21.53L159.85-21.53L159.85-21.53Q156.47-25.95 156.47-29.90L156.47-29.90L156.47-29.90Q156.47-36.97 165.78-36.97L165.78-36.97L165.78-36.97Q170.87-36.97 175.40-35.46L175.40-35.46L175.40-35.46Q175.03-32.19 173.47-30.16L173.47-30.16L173.47-30.16Q168.84-34.06 165.41-34.06L165.41-34.06L165.41-34.06Q163.12-34.06 161.85-32.79L161.85-32.79L161.85-32.79Q160.58-31.51 160.58-29.07L160.58-29.07L160.58-29.07Q160.58-24.28 170.35-15.91L170.35-15.91L170.35-15.91Q174.04-12.69 178.00-9.83L178.00-9.83L178.00-9.83Q178.52-12.27 178.52-15.11L178.52-15.11L178.52-15.11Q178.52-17.94 177.53-21.06L177.53-21.06L172.02-20.96L174.10-23.97L174.10-23.97Q178.05-23.61 179.87-23.61L179.87-23.61L186.89-23.92ZM176.33-6.08L176.33-6.08L176.33-6.08Q165.78-14.72 161.36-19.76L161.36-19.76L161.36-19.76Q157.92-17.42 157.92-12.38L157.92-12.38L157.92-12.38Q157.92-8.37 160.37-5.56L160.37-5.56L160.37-5.56Q162.81-2.76 167.75-2.76L167.75-2.76L167.75-2.76Q173.73-2.76 176.33-6.08ZM199.47-19.50L199.47-19.50L199.47-19.50Q199.47-12.01 203.09-7.85L203.09-7.85L203.09-7.85Q206.70-3.69 212.06-3.69L212.06-3.69L212.06-3.69Q215.96-3.69 222.40-7.23L222.40-7.23L223.81-5.10L223.81-5.10Q221.42-3.33 220.09-2.55L220.09-2.55L220.09-2.55Q218.76-1.77 217.10-0.94L217.10-0.94L217.10-0.94Q213.72 0.68 209.87 0.68L209.87 0.68L209.87 0.68Q203.11 0.68 198.35-4.37L198.35-4.37L198.35-4.37Q193.60-9.41 193.60-17.89L193.60-17.89L193.60-17.89Q193.60-26.36 199.11-31.69L199.11-31.69L199.11-31.69Q204.62-37.02 212.78-37.02L212.78-37.02L212.78-37.02Q218.24-37.02 223.03-34.53L223.03-34.53L223.03-34.53Q222.40-31.25 220.84-29.02L220.84-29.02L220.84-29.02Q215.49-33.33 209.25-33.33L209.25-33.33L209.25-33.33Q207.38-33.33 205.61-32.97L205.61-32.97L205.61-32.97Q202.96-30.99 201.21-27.61L201.21-27.61L201.21-27.61Q199.47-24.23 199.47-19.50ZM239.36 0.62L239.36 0.62L239.36 0.62Q233.90 0.62 230.72-2.83L230.72-2.83L230.72-2.83Q227.55-6.29 227.55-11.88L227.55-11.88L227.55-11.88Q227.55-17.47 231.24-21.53L231.24-21.53L231.24-21.53Q234.94-25.58 240.53-25.58L240.53-25.58L240.53-25.58Q246.12-25.58 249.16-22.20L249.16-22.20L249.16-22.20Q252.20-18.82 252.20-13.16L252.20-13.16L252.20-13.16Q252.20-7.49 248.51-3.43L248.51-3.43L248.51-3.43Q244.82 0.62 239.36 0.62ZM246.69-11.86L246.69-11.86L246.69-11.86Q246.69-17.00 245.08-19.81L245.08-19.81L245.08-19.81Q243.46-22.62 239.36-22.62L239.36-22.62L239.36-22.62Q236.70-22.62 235.20-21.48L235.20-21.48L235.20-21.48Q234.26-20.28 233.66-17.84L233.66-17.84L233.66-17.84Q233.06-15.39 233.06-13.16L233.06-13.16L233.06-13.16Q233.06-2.29 240.76-2.29L240.76-2.29L240.76-2.29Q243.15-2.29 244.66-3.38L244.66-3.38L244.66-3.38Q245.65-4.58 246.17-7.07L246.17-7.07L246.17-7.07Q246.69-9.57 246.69-11.86ZM274.09-24.96L275.39-22.41L261.56-3.07L261.56-3.07Q270.09-3.07 274.82-4.58L274.82-4.58L275.39-4.32L273.94 0L256.52 0L255.27-2.50L269.15-21.84L269.15-21.84Q263.69-21.84 261.46-21.55L261.46-21.55L261.46-21.55Q259.22-21.27 257.40-20.38L257.40-20.38L256.83-20.75L257.87-25.12L274.09-24.96ZM289.85-4.78L289.85-4.78L289.85-4.78Q294.84-20.02 294.84-22.88L294.84-22.88L294.84-22.88Q294.84-23.76 294.48-24.34L294.48-24.34L294.48-24.96L300.04-24.96L300.04-24.34L300.04-24.34Q299.26-23.66 291.56-0.52L291.56-0.52L291.56-0.52Q287.87 10.30 287.35 12.38L287.35 12.38L287.35 12.79L280.90 13.26L280.85 12.90L280.85 12.90Q284.65 8.37 287.51 0.73L287.51 0.73L287.51 0.73Q287.20-0.16 278.51-20.70L278.51-20.70L278.51-20.70Q277.47-23.14 276.28-24.13L276.28-24.13L276.28-24.75L283.24-25.32L283.24-24.70L283.24-24.70Q283.24-23.35 284.49-19.47L284.49-19.47L284.49-19.47Q285.74-15.60 289.85-4.78Z"/></g></g></g></g></svg>